<svg width="60" height="60" viewBox="0 0 60 60" fill="none" xmlns="http://www.w3.org/2000/svg">
<g opacity="0.9">
<path d="M41.8284 2.74489H38.3671L41.9666 6.65099V8.51052H34.5529V6.33317H38.152L34.5529 2.42708V0.565674H41.8284V2.74489ZM33.0829 2.74489H29.6216L33.2212 6.65099V8.51052H25.807V6.33317H29.4065L25.807 2.42708V0.565674H33.0829V2.74489ZM24.4232 2.83396H20.6882V6.24224H24.4232V8.51052H18.0332V0.565674H24.4232V2.83396Z" fill="white"/>
<path d="M12.9434 54.706L9.14795 12.1375H50.8512L47.0525 54.699L29.974 59.4343L12.9434 54.706Z" fill="#1572B6"/>
<path d="M30.0005 55.8149L43.8 51.9889L47.0466 15.6182H30.0005V55.8149Z" fill="#33A9DC"/>
<path d="M30 31.0407H36.9084L37.3861 25.6946H30V20.4736H43.0917L42.9666 21.8743L41.6836 36.2611H30V31.0407Z" fill="white"/>
<path d="M30.0312 44.5997L30.0083 44.6063L24.1939 43.036L23.8217 38.8721H18.5815L19.3133 47.0696L30.0073 50.0382L30.0317 50.0311L30.0312 44.5997Z" fill="#EBEBEB"/>
<path d="M36.4651 36.0403L35.836 43.0322L30.0132 44.6039V50.0357L40.7162 47.0695L40.7949 46.1873L41.7033 36.0403H36.4651Z" fill="white"/>
<path d="M30.018 20.4736V25.6941H17.4073L17.3023 24.5208L17.0646 21.8743L16.9395 20.4736H30.018ZM29.9998 31.0411V36.2621H24.259L24.1545 35.0888L23.9163 32.4418L23.7912 31.0411H29.9998Z" fill="#EBEBEB"/>
</g>
</svg>
