<svg width="60" height="60" viewBox="0 0 60 60" fill="none" xmlns="http://www.w3.org/2000/svg">
<path d="M48.1748 13.325C44.8498 11.775 41.2498 10.65 37.4998 10C37.4339 10.0009 37.371 10.0279 37.3248 10.075C36.8748 10.9 36.3498 11.975 35.9998 12.8C32.0223 12.2004 27.9773 12.2004 23.9998 12.8C23.6498 11.95 23.1248 10.9 22.6498 10.075C22.6248 10.025 22.5498 10 22.4748 10C18.7248 10.65 15.1498 11.775 11.7998 13.325C11.7748 13.325 11.7498 13.35 11.7248 13.375C4.92481 23.55 3.0498 33.45 3.9748 43.25C3.9748 43.3 3.9998 43.35 4.0498 43.375C8.5498 46.675 12.8748 48.675 17.1498 50C17.2248 50.025 17.2998 50 17.3248 49.95C18.3248 48.575 19.2248 47.125 19.9998 45.6C20.0498 45.5 19.9998 45.4 19.8998 45.375C18.4748 44.825 17.1248 44.175 15.7998 43.425C15.6998 43.375 15.6998 43.225 15.7748 43.15C16.0498 42.95 16.3248 42.725 16.5998 42.525C16.6498 42.475 16.7248 42.475 16.7748 42.5C25.3748 46.425 34.6498 46.425 43.1498 42.5C43.1998 42.475 43.2748 42.475 43.3248 42.525C43.5998 42.75 43.8748 42.95 44.1498 43.175C44.2498 43.25 44.2498 43.4 44.1248 43.45C42.8248 44.225 41.4498 44.85 40.0248 45.4C39.9248 45.425 39.8998 45.55 39.9248 45.625C40.7248 47.15 41.6248 48.6 42.5998 49.975C42.6748 50 42.7498 50.025 42.8248 50C47.1248 48.675 51.4498 46.675 55.9498 43.375C55.9998 43.35 56.0248 43.3 56.0248 43.25C57.1248 31.925 54.1998 22.1 48.2748 13.375C48.2498 13.35 48.2248 13.325 48.1748 13.325ZM21.2998 37.275C18.7248 37.275 16.5748 34.9 16.5748 31.975C16.5748 29.05 18.6748 26.675 21.2998 26.675C23.9498 26.675 26.0498 29.075 26.0248 31.975C26.0248 34.9 23.9248 37.275 21.2998 37.275ZM38.7248 37.275C36.1498 37.275 33.9998 34.9 33.9998 31.975C33.9998 29.05 36.0998 26.675 38.7248 26.675C41.3748 26.675 43.4748 29.075 43.4498 31.975C43.4498 34.9 41.3748 37.275 38.7248 37.275Z" fill="white"/>
</svg>
