<svg width="60" height="60" viewBox="0 0 60 60" fill="none" xmlns="http://www.w3.org/2000/svg">
<path d="M22.5 7.5H30V22.5H22.5C20.5109 22.5 18.6032 21.7098 17.1967 20.3033C15.7902 18.8968 15 16.9891 15 15C15 13.0109 15.7902 11.1032 17.1967 9.6967C18.6032 8.29018 20.5109 7.5 22.5 7.5Z" fill="#F4511E"/>
<path d="M37.5 22.5H30V7.5H37.5C39.4891 7.5 41.3968 8.29018 42.8033 9.6967C44.2098 11.1032 45 13.0109 45 15C45 16.9891 44.2098 18.8968 42.8033 20.3033C41.3968 21.7098 39.4891 22.5 37.5 22.5Z" fill="#FF8A65"/>
<path d="M30 30C30 34.1421 33.3579 37.5 37.5 37.5C41.6421 37.5 45 34.1421 45 30C45 25.8579 41.6421 22.5 37.5 22.5C33.3579 22.5 30 25.8579 30 30Z" fill="#29B6F6"/>
<path d="M22.5 22.5H30V37.5H22.5C20.5109 37.5 18.6032 36.7098 17.1967 35.3033C15.7902 33.8968 15 31.9891 15 30C15 28.0109 15.7902 26.1032 17.1967 24.6967C18.6032 23.2902 20.5109 22.5 22.5 22.5Z" fill="#7C4DFF"/>
<path d="M22.5 37.5H30V45C30 46.9891 29.2098 48.8968 27.8033 50.3033C26.3968 51.7098 24.4891 52.5 22.5 52.5C20.5109 52.5 18.6032 51.7098 17.1967 50.3033C15.7902 48.8968 15 46.9891 15 45C15 43.0109 15.7902 41.1032 17.1967 39.6967C18.6032 38.2902 20.5109 37.5 22.5 37.5Z" fill="#00E676"/>
</svg>
