<svg width="60" height="60" viewBox="0 0 60 60" fill="none" xmlns="http://www.w3.org/2000/svg">
<path d="M13.0568 54.541L9.28662 12.2546H50.7138L46.9399 54.5345L29.9749 59.2375L13.0568 54.541Z" fill="#E44D26"/>
<path d="M30 55.6424L43.7081 51.8418L46.9336 15.7124H30V55.6424Z" fill="#F16529"/>
<path d="M30.0001 31.3958H23.1372L22.6637 26.0844H30.0001V20.8982H16.9956L17.1194 22.2899L18.3944 36.5816H30.0001V31.3958ZM30.0001 44.8644L29.9772 44.8705L24.2017 43.3105L23.8323 39.1748H18.6259L19.3525 47.3179L29.9762 50.2673L30.0001 50.2602V44.8644Z" fill="#EBEBEB"/>
<path d="M13.1411 0.762695H15.7764V3.36707H18.1877V0.762695H20.8235V8.64801H18.1877V6.00754H15.7769V8.64801H13.1411V0.762695ZM24.2889 3.37785H21.9686V0.762695H29.246V3.37785H26.9247V8.64801H24.2889V3.37785ZM30.401 0.762695H33.1488L34.8396 3.53348L36.5285 0.762695H39.2777V8.64801H36.6522V4.73957L34.8396 7.54316H34.7936L32.9796 4.73957V8.64801H30.4005V0.762695H30.401ZM40.5897 0.762695H43.226V6.04176H46.9324V8.64848H40.5897V0.762695Z" fill="white"/>
<path d="M29.9824 31.3958V36.5816H36.3687L35.7668 43.3077L29.9824 44.8691V50.2644L40.6146 47.3179L40.6924 46.4413L41.9112 32.788L42.0377 31.3958H40.6399H29.9824ZM29.9824 20.8982V26.0844H42.5098L42.6134 24.9187L42.8501 22.2899L42.9743 20.8982H29.9824Z" fill="white"/>
</svg>
