<svg width="60" height="60" viewBox="0 0 60 60" fill="none" xmlns="http://www.w3.org/2000/svg">
<path d="M3.75 3.75H56.25V56.25H3.75V3.75Z" fill="#F5DE19"/>
<path d="M39.0166 44.7657C39.4647 45.6737 40.1598 46.4369 41.0222 46.9676C41.8845 47.4983 42.8791 47.7749 43.8916 47.7657C45.9354 47.7657 47.2423 46.7438 47.2423 45.3282C47.2423 43.6407 45.8998 43.0369 43.6498 42.0525L42.416 41.5238C38.8535 40.0069 36.491 38.1075 36.491 34.0913C36.491 30.3919 39.3035 27.5738 43.7154 27.5738C45.1436 27.4709 46.5704 27.7907 47.8181 28.4932C49.0657 29.1957 50.079 30.2499 50.7316 31.5244L46.8748 33.99C46.6233 33.3582 46.1859 32.8176 45.6203 32.4399C45.0548 32.0622 44.3879 31.8652 43.7079 31.875C43.4112 31.8453 43.1116 31.8778 42.8281 31.9703C42.5446 32.0628 42.2835 32.2133 42.0614 32.4123C41.8394 32.6112 41.6612 32.8543 41.5382 33.1259C41.4152 33.3976 41.3502 33.6919 41.3473 33.99C41.3473 35.4694 42.2641 36.0694 44.381 36.99L45.6148 37.5188C49.8073 39.3169 52.1773 41.1488 52.1773 45.2682C52.1773 49.71 48.6879 52.1438 44.0023 52.1438C42.1768 52.2589 40.3569 51.8439 38.7618 50.9487C37.1667 50.0535 35.8644 48.7164 35.0116 47.0982L39.0166 44.7657ZM21.5885 45.1932C22.3629 46.5675 23.0679 47.73 24.7629 47.73C26.3829 47.73 27.4066 47.0963 27.4066 44.6307V27.855H32.3398V44.6963C32.3398 49.8038 29.3398 52.1288 24.9729 52.1288C23.4293 52.2132 21.8963 51.8285 20.5754 51.0253C19.2545 50.2221 18.2076 49.0381 17.5723 47.6288L21.5885 45.1932Z" fill="black"/>
</svg>
