<svg width="60" height="60" viewBox="0 0 60 60" fill="none" xmlns="http://www.w3.org/2000/svg">
<path fill-rule="evenodd" clip-rule="evenodd" d="M44.85 6.08508L45.325 6.37758L50.275 9.67758C50.9011 10.0954 51.4248 10.6492 51.8071 11.2976C52.1893 11.9461 52.4202 12.6724 52.4825 13.4226L52.5 13.8376V45.1851C52.4999 46.3776 52.0736 47.5309 51.2979 48.4368C50.5222 49.3426 49.4483 49.9414 48.27 50.1251L47.8825 50.1701L19.06 52.3876C18.2928 52.4466 17.5223 52.3277 16.8086 52.0402C16.0949 51.7527 15.4571 51.3044 14.945 50.7301L14.6775 50.4026L9 42.8326C8.13715 41.6818 7.62341 40.3072 7.52 38.8726L7.5 38.3326V12.3151C7.50008 11.1225 7.92643 9.96923 8.70209 9.06337C9.47775 8.15751 10.5517 7.55873 11.73 7.37508L12.1175 7.33008L40.5875 5.14008C42.0698 5.0259 43.5525 5.35482 44.8475 6.08508H44.85ZM47.5 17.7001L20 19.8151V47.3001L47.5 45.1851V17.7001ZM40 21.2501C40.663 21.2501 41.2989 21.5135 41.7678 21.9823C42.2366 22.4512 42.5 23.087 42.5 23.7501V41.2501C42.5 41.9131 42.2366 42.549 41.7678 43.0178C41.2989 43.4867 40.663 43.7501 40 43.7501H38.75C38.3229 43.7502 37.9028 43.6409 37.53 43.4326C37.1571 43.2242 36.8438 42.9239 36.62 42.5601L30 31.8001V42.5001C30 43.1631 29.7366 43.799 29.2678 44.2678C28.7989 44.7367 28.163 45.0001 27.5 45.0001C26.837 45.0001 26.2011 44.7367 25.7322 44.2678C25.2634 43.799 25 43.1631 25 42.5001V25.0001C25 24.337 25.2634 23.7012 25.7322 23.2323C26.2011 22.7635 26.837 22.5001 27.5 22.5001H28.75C29.1771 22.5 29.5972 22.6093 29.97 22.8176C30.3429 23.0259 30.6562 23.3263 30.88 23.6901L37.5 34.4476V23.7501C37.5 23.087 37.7634 22.4512 38.2322 21.9823C38.7011 21.5135 39.337 21.2501 40 21.2501ZM40.97 10.1251L15.6125 12.0751L18.455 14.9176L45.95 12.8051L42.55 10.5376C42.0844 10.2271 41.528 10.0818 40.97 10.1251Z" fill="white"/>
</svg>
